<svg xmlns="http://www.w3.org/2000/svg" width="2000" height="2000" viewBox="0 0 2000 2000" version="1.1"><path d="M 704 267.467 C 569.005 297.341, 454.940 346.174, 378 407.031 C 335.610 440.560, 305.957 475.410, 287.410 513.500 C 278.959 530.854, 274.120 544.785, 270.303 562.744 C 267.825 574.405, 267.589 577.432, 267.549 598 C 267.503 622.148, 268.767 631.884, 274.371 650.541 C 295.201 719.903, 353.538 782.421, 447 835.547 C 472.694 850.152, 526.423 875.601, 541.750 880.426 L 544 881.135 544 835.010 L 544 788.886 536.750 785.727 C 523.318 779.875, 494.592 765.315, 482 757.978 C 412.069 717.228, 370.820 669.843, 361.455 619.500 C 358.945 606.003, 359.827 581.848, 363.300 569 C 370.436 542.604, 383.928 520.348, 407.473 496.130 C 435.095 467.720, 469.219 444.214, 516.501 421.029 C 549.799 404.701, 595.290 387.299, 633.248 376.370 C 634.910 375.891, 635.009 391.460, 635.248 689.668 L 635.500 1003.470 642 1005.229 C 660.704 1010.293, 722.459 1024, 726.566 1024 C 727.809 1024, 728 973.251, 728 643.500 L 728 263 725.750 263.076 C 724.513 263.117, 714.725 265.093, 704 267.467 M 1277 509.441 C 1277 644.984, 1277.365 756.107, 1277.810 756.383 C 1279.469 757.408, 1344.741 742.423, 1364.750 736.424 L 1370 734.850 1370 555.357 C 1370 384.873, 1370.088 375.892, 1371.750 376.405 C 1395.029 383.592, 1403.131 386.241, 1416.679 391.100 C 1464.796 408.355, 1513.283 431.773, 1545.500 453.316 C 1572.124 471.119, 1601.063 497.282, 1615.176 516.305 C 1627.605 533.059, 1636.883 551.720, 1641.739 569.730 C 1644.150 578.670, 1644.374 581.114, 1644.374 598.500 C 1644.374 615.765, 1644.139 618.368, 1641.807 627 C 1636.698 645.906, 1630.079 659.597, 1617.029 678.250 C 1607.382 692.038, 1580.942 718.084, 1563.144 731.332 C 1471.670 799.420, 1317.225 847.659, 1138.500 863.965 C 1062.242 870.922, 972.936 871.838, 896 866.452 C 874.621 864.956, 828.457 860.528, 822.250 859.379 L 819 858.777 819 904.186 L 819 949.595 835.250 951.347 C 972.396 966.138, 1102.621 963.364, 1230 942.937 C 1396.643 916.214, 1539.535 860.471, 1631 786.504 C 1688.941 739.648, 1722.825 689.842, 1734.751 634 C 1737.205 622.514, 1737.421 619.635, 1737.421 598.500 C 1737.421 577.272, 1737.212 574.517, 1734.704 562.744 C 1730.873 544.765, 1726.034 530.840, 1717.590 513.500 C 1683.040 442.548, 1605.381 378.291, 1495.500 329.737 C 1447.757 308.641, 1395.414 290.772, 1341.262 277.084 C 1317.521 271.083, 1281.508 263, 1278.512 263 C 1277.167 263, 1277 290.151, 1277 509.441 M 358 1236.878 L 358 1488.757 373.750 1499.096 C 382.413 1504.782, 465.473 1559.962, 558.329 1621.718 C 651.185 1683.473, 727.347 1734, 727.579 1734 C 727.811 1734, 728 1635.482, 728 1515.071 L 728 1296.142 722.750 1295.106 C 719.862 1294.536, 707.600 1292.227, 695.500 1289.974 C 683.400 1287.721, 665.400 1284.105, 655.500 1281.939 C 645.600 1279.773, 636.938 1278.001, 636.250 1278.001 C 635.256 1278, 635 1308.057, 635 1424.953 L 635 1571.905 543 1510.740 L 451 1449.574 451 1288.680 C 451 1160.357, 451.253 1127.890, 452.250 1128.300 C 498.078 1147.147, 569.054 1170.223, 622.150 1183.538 C 791.055 1225.894, 970.059 1239.022, 1153 1222.472 C 1168.125 1221.103, 1181.737 1219.727, 1183.250 1219.412 L 1186 1218.841 1186 1173.401 L 1186 1127.962 1183.750 1128.466 C 1180.321 1129.234, 1142.969 1132.777, 1120.500 1134.465 C 1021.369 1141.914, 918.734 1139.843, 821 1128.423 C 654.391 1108.954, 498.812 1061.904, 373.679 993.144 C 365.528 988.665, 358.665 985, 358.429 985 C 358.193 985, 358 1098.345, 358 1236.878 M 1633 991.692 C 1615.338 1001.784, 1565.962 1025.841, 1542 1036.030 C 1523.143 1044.048, 1478.827 1061.064, 1466 1065.211 L 1461.500 1066.666 1461.240 1113.333 C 1461.026 1151.761, 1461.216 1160, 1462.318 1160 C 1465.617 1160, 1518.594 1141.393, 1550.250 1129.116 L 1553 1128.050 1553 1288.929 L 1553 1449.808 1461.955 1510.404 C 1411.880 1543.732, 1370.705 1571, 1370.455 1571 C 1370.205 1571, 1370 1443.200, 1370 1287 C 1370 1071.216, 1369.720 1003, 1368.833 1003 C 1368.191 1003, 1362.678 1004.335, 1356.583 1005.967 C 1341.569 1009.986, 1318.309 1015.362, 1296 1019.967 L 1277.500 1023.787 1277.249 1378.893 C 1277.110 1574.202, 1277.188 1734, 1277.421 1734 C 1277.654 1734, 1360.680 1678.863, 1461.922 1611.473 L 1646 1488.946 1646 1236.973 C 1646 1098.388, 1645.662 985.027, 1645.250 985.061 C 1644.838 985.094, 1639.325 988.079, 1633 991.692" stroke="none" fill="#ffffff" fill-rule="evenodd"/></svg>