<svg width="100" height="100" viewBox="0 0 100 100" fill="none" xmlns="http://www.w3.org/2000/svg">
<path fill-rule="evenodd" clip-rule="evenodd" d="M20 0C8.95431 0 0 8.9543 0 20V80C0 91.0457 8.9543 100 20 100H80C91.0457 100 100 91.0457 100 80V20C100 8.9543 91.0457 0 80 0H20ZM69.0345 47.8388C70.2817 44.0743 70.5242 40.2867 69.762 36.476C69.508 35.1595 69.0807 33.8316 68.4802 32.4921C67.6257 30.8292 66.5403 29.8938 65.2238 29.686C63.9305 29.4781 62.7757 29.813 61.7596 30.6906C60.7434 31.5452 60.2468 32.7577 60.2699 34.3281C60.3623 35.4136 60.5817 36.603 60.9281 37.8963C61.3669 39.4437 61.6672 41.1066 61.8288 42.8849C61.875 45.6332 61.0783 48.0351 59.4385 50.0906C57.7987 52.1691 55.7086 53.7512 53.1682 54.8366C49.4729 56.3147 45.8816 56.6727 42.3943 55.9105C39.1609 55.1484 36.4704 53.5433 34.3225 51.0952C32.1747 48.6702 30.8351 45.8295 30.304 42.5731C29.819 39.4783 30.1423 36.4067 31.274 33.3581C32.4287 30.2865 34.4033 27.6074 37.1979 25.321C40.0155 23.0346 43.7107 21.5103 48.2835 20.7482C52.7409 20.1477 56.4823 20.2747 59.5078 21.1292C62.5563 21.9838 65.2354 23.0461 67.5449 24.3164C68.4918 24.8245 69.3001 25.2748 69.9699 25.6674C70.963 26.3141 72.1755 26.9146 73.6074 27.4689C74.485 27.746 75.2356 27.6767 75.8591 27.261C76.4827 26.8453 76.8522 26.291 76.9677 25.5981C77.1063 24.8822 76.8638 24.224 76.2402 23.6235C73.0993 20.9445 69.3925 18.762 65.1199 17.076C60.8473 15.367 57.0943 14.3739 53.861 14.0968C48.1565 13.681 42.7984 14.6049 37.7868 16.8682C32.7751 19.1084 28.7912 22.4457 25.835 26.8799C22.8789 31.2911 21.6317 36.5337 22.0936 42.6077C22.671 47.7579 24.4147 52.0652 27.3247 55.5295C30.2578 58.9937 33.8144 61.4649 37.9946 62.943C42.198 64.4211 46.5168 64.756 50.951 63.9477C55.3853 63.1393 59.4039 61.0377 63.0067 57.6427C65.8012 54.8713 67.8105 51.6033 69.0345 47.8388ZM42.8442 83.0669C42.7518 80.5957 43.3407 78.3901 44.6109 76.4501C45.8812 74.5332 47.5094 73.1013 49.4956 72.1544C51.5049 71.2076 53.5603 70.9651 55.662 71.427C57.9253 72.0505 59.5535 73.263 60.5466 75.0644C61.5628 76.8889 61.5166 78.9097 60.408 81.1269C59.0916 83.3209 57.3941 84.7874 55.3156 85.5265C53.237 86.2886 51.2739 86.5773 49.4263 86.3925C47.5787 86.2308 46.3315 85.896 45.6849 85.3879C44.4377 84.3255 44.1837 83.5865 44.9227 83.1708C45.6618 82.7551 46.8743 82.4317 48.5602 82.2008C50.3616 81.9467 52.0592 81.4964 53.6527 80.8497C55.3849 79.9721 56.1932 79.0021 56.0777 77.9398C55.9622 76.9005 55.2232 76.1614 53.8606 75.7226C52.1515 75.2838 50.5464 75.4108 49.0452 76.1037C47.544 76.8196 46.2507 77.8243 45.1652 79.1176C44.0797 80.4109 43.3061 81.7273 42.8442 83.0669Z" fill="#A8AAAD"/>
</svg>
