<svg width="100" height="100" viewBox="0 0 100 100" fill="none" xmlns="http://www.w3.org/2000/svg">
<path fill-rule="evenodd" clip-rule="evenodd" d="M50 100C77.6142 100 100 77.6142 100 50C100 22.3858 77.6142 0 50 0C22.3858 0 0 22.3858 0 50C0 77.6142 22.3858 100 50 100ZM66.8993 47.8935C68.0103 44.5679 68.2263 41.2219 67.5474 37.8555C67.321 36.6925 66.9404 35.5194 66.4055 34.3361C65.6443 32.8671 64.6773 32.0408 63.5046 31.8571C62.3525 31.6735 61.3239 31.9694 60.4186 32.7447C59.5134 33.4995 59.071 34.5707 59.0916 35.958C59.1739 36.917 59.3694 37.9677 59.6779 39.1102C60.0688 40.4772 60.3363 41.9462 60.4803 43.5172C60.5215 45.9451 59.8117 48.0669 58.351 49.8828C56.8902 51.719 55.0283 53.1165 52.7652 54.0755C49.4734 55.3812 46.2742 55.6974 43.1676 55.0242C40.2873 54.3509 37.8905 52.9329 35.9771 50.7703C34.0638 48.628 32.8705 46.1185 32.3973 43.2417C31.9653 40.5078 32.2533 37.7943 33.2614 35.1011C34.2901 32.3876 36.0491 30.0209 38.5385 28.0011C41.0485 25.9812 44.3403 24.6347 48.4139 23.9614C52.3846 23.4309 55.7175 23.5432 58.4127 24.298C61.1284 25.0529 63.5149 25.9915 65.5723 27.1136C66.4158 27.5624 67.1359 27.9603 67.7325 28.3071C68.6172 28.8784 69.6973 29.4089 70.9729 29.8985C71.7547 30.1433 72.4233 30.0822 72.9788 29.7149C73.5343 29.3477 73.8635 28.858 73.9663 28.2459C74.0898 27.6134 73.8737 27.032 73.3183 26.5015C70.5203 24.1348 67.2182 22.2068 63.412 20.7174C59.6059 19.2076 56.2627 18.3303 53.3824 18.0855C48.3007 17.7182 43.5276 18.5343 39.0632 20.5338C34.5987 22.5128 31.0497 25.461 28.4163 29.3783C25.7829 33.2751 24.6719 37.9065 25.0834 43.2723C25.5977 47.8221 27.1511 51.6272 29.7433 54.6875C32.3562 57.7479 35.5245 59.931 39.2484 61.2367C42.9927 62.5425 46.84 62.8383 50.7902 62.1242C54.7403 61.4102 58.3201 59.5535 61.5296 56.5544C64.019 54.106 65.8089 51.2191 66.8993 47.8935ZM43.5684 79.0143C43.4861 76.8313 44.0107 74.8828 45.1423 73.169C46.2738 71.4756 47.7243 70.2107 49.4936 69.3742C51.2835 68.5377 53.1146 68.3235 54.9868 68.7315C57.003 69.2824 58.4534 70.3535 59.3381 71.9449C60.2433 73.5567 60.2022 75.3419 59.2147 77.3005C58.042 79.2387 56.5298 80.5343 54.6782 81.1871C52.8265 81.8604 51.0778 82.1154 49.4319 81.9522C47.786 81.8094 46.675 81.5136 46.0989 81.0647C44.988 80.1262 44.7617 79.4734 45.42 79.1061C46.0784 78.7389 47.1585 78.4532 48.6604 78.2492C50.2651 78.0248 51.7773 77.627 53.1969 77.0557C54.7399 76.2804 55.46 75.4235 55.3571 74.485C55.2542 73.5669 54.5959 72.914 53.382 72.5263C51.8596 72.1387 50.4297 72.2509 49.0924 72.8629C47.7551 73.4954 46.603 74.383 45.636 75.5255C44.6691 76.668 43.9799 77.831 43.5684 79.0143Z" fill="#FF7900"/>
</svg>
