<svg width="270" height="270" viewBox="0 0 270 270" fill="none" xmlns="http://www.w3.org/2000/svg">
<path d="M0 54C0 24.1766 24.1766 0 54 0H216C245.823 0 270 24.1766 270 54V216C270 245.823 245.823 270 216 270H54C24.1766 270 0 245.823 0 216V54Z" fill="#FF7900"/>
<path d="M188.357 98.4853C190.415 108.774 189.76 119.001 186.393 129.165C183.088 139.329 177.663 148.153 170.118 155.635C160.39 164.802 149.54 170.476 137.567 172.659C125.595 174.841 113.934 173.937 102.585 169.946C91.2986 165.956 81.6956 159.283 73.7763 149.93C65.9193 140.576 61.2114 128.947 59.6524 115.041C58.4053 98.6413 61.7726 84.4862 69.7543 72.576C77.7359 60.6035 88.4925 51.5929 102.024 45.5443C115.555 39.4333 130.022 36.939 145.424 38.0615C154.154 38.8097 164.287 41.4911 175.823 46.1055C187.359 50.6576 197.368 56.5503 205.848 63.7837C207.532 65.405 208.187 67.1821 207.812 69.1152C207.501 70.9859 206.503 72.4825 204.819 73.6049C203.136 74.7273 201.109 74.9144 198.74 74.1661C194.873 72.6696 191.6 71.0483 188.918 69.3023C187.11 68.2422 184.927 67.0262 182.371 65.6544C176.135 62.2248 168.902 59.3563 160.671 57.0491C152.502 54.7419 142.4 54.399 130.365 56.0203C118.019 58.078 108.041 62.1936 100.434 68.3669C92.8887 74.5402 87.5571 81.7737 84.4393 90.0671C81.3838 98.2982 80.5108 106.592 81.8203 114.948C83.2545 123.74 86.8712 131.41 92.6704 137.957C98.4696 144.567 105.734 148.901 114.464 150.959C123.88 153.016 133.577 152.05 143.554 148.059C150.413 145.128 156.056 140.857 160.484 135.245C164.911 129.695 167.062 123.21 166.938 115.789C166.501 110.988 165.69 106.498 164.506 102.32C163.57 98.8283 162.978 95.6169 162.728 92.6861C162.666 88.4459 164.007 85.1721 166.75 82.8649C169.494 80.4954 172.612 79.5912 176.104 80.1524C179.658 80.7136 182.589 83.2391 184.896 87.7287C186.518 91.3454 187.671 94.931 188.357 98.4853Z" fill="white"/>
<path d="M120.449 206.415C117.02 211.653 115.429 217.609 115.679 224.281C116.926 220.664 119.015 217.11 121.946 213.618C124.876 210.126 128.369 207.413 132.422 205.48C136.475 203.609 140.809 203.266 145.423 204.451C149.102 205.636 151.098 207.631 151.409 210.438C151.721 213.306 149.539 215.925 144.862 218.294C140.559 220.04 135.976 221.256 131.112 221.942C126.56 222.566 123.286 223.439 121.291 224.561C119.296 225.684 119.982 227.679 123.349 230.547C125.095 231.919 128.462 232.823 133.451 233.26C138.439 233.759 143.74 232.979 149.352 230.922C154.964 228.926 159.547 224.967 163.101 219.043C166.094 213.057 166.219 207.6 163.475 202.674C160.794 197.81 156.398 194.537 150.287 192.853C144.613 191.606 139.063 192.261 133.638 194.817C128.275 197.374 123.879 201.24 120.449 206.415Z" fill="white"/>
</svg>
