<svg width="100" height="100" viewBox="0 0 100 100" fill="none" xmlns="http://www.w3.org/2000/svg">
<rect width="100" height="100" rx="20" fill="#FF7900"/>
<path d="M69.762 36.476C70.5242 40.2867 70.2817 44.0743 69.0345 47.8388C67.8105 51.6033 65.8012 54.8713 63.0067 57.6427C59.4039 61.0377 55.3853 63.1393 50.951 63.9477C46.5168 64.756 42.198 64.4211 37.9946 62.943C33.8144 61.4649 30.2578 58.9937 27.3247 55.5295C24.4147 52.0652 22.671 47.7579 22.0936 42.6077C21.6317 36.5337 22.8789 31.2911 25.835 26.8799C28.7912 22.4457 32.7751 19.1084 37.7868 16.8682C42.7984 14.6049 48.1565 13.681 53.861 14.0968C57.0943 14.3739 60.8473 15.367 65.1199 17.076C69.3925 18.762 73.0993 20.9445 76.2402 23.6235C76.8638 24.224 77.1063 24.8822 76.9677 25.5981C76.8522 26.291 76.4827 26.8453 75.8591 27.261C75.2356 27.6767 74.485 27.746 73.6074 27.4689C72.1755 26.9146 70.963 26.3141 69.9699 25.6674C69.3001 25.2748 68.4918 24.8245 67.5449 24.3164C65.2354 23.0461 62.5563 21.9838 59.5078 21.1292C56.4823 20.2747 52.7409 20.1477 48.2835 20.7482C43.7107 21.5103 40.0155 23.0346 37.1979 25.321C34.4033 27.6074 32.4287 30.2865 31.274 33.3581C30.1423 36.4067 29.819 39.4783 30.304 42.5731C30.8351 45.8295 32.1747 48.6702 34.3225 51.0952C36.4704 53.5433 39.1609 55.1484 42.3943 55.9105C45.8816 56.6727 49.4729 56.3147 53.1682 54.8366C55.7086 53.7512 57.7987 52.1691 59.4385 50.0906C61.0783 48.0351 61.875 45.6332 61.8288 42.8849C61.6672 41.1066 61.3669 39.4437 60.9281 37.8963C60.5817 36.603 60.3623 35.4136 60.2699 34.3281C60.2468 32.7577 60.7434 31.5452 61.7596 30.6906C62.7757 29.813 63.9305 29.4781 65.2238 29.686C66.5403 29.8938 67.6257 30.8292 68.4802 32.4921C69.0807 33.8316 69.508 35.1595 69.762 36.476Z" fill="white"/>
<path d="M44.6109 76.4501C43.3407 78.3901 42.7518 80.5957 42.8442 83.0669C43.3061 81.7273 44.0797 80.4109 45.1652 79.1176C46.2507 77.8243 47.544 76.8196 49.0452 76.1037C50.5464 75.4108 52.1515 75.2838 53.8606 75.7226C55.2232 76.1614 55.9622 76.9005 56.0777 77.9398C56.1932 79.0021 55.3849 79.9721 53.6527 80.8497C52.0592 81.4964 50.3616 81.9467 48.5602 82.2008C46.8743 82.4317 45.6618 82.7551 44.9227 83.1708C44.1837 83.5865 44.4377 84.3255 45.6849 85.3879C46.3315 85.896 47.5787 86.2308 49.4263 86.3925C51.2739 86.5773 53.237 86.2886 55.3156 85.5265C57.3941 84.7874 59.0916 83.3209 60.408 81.1269C61.5166 78.9097 61.5628 76.8889 60.5466 75.0644C59.5535 73.263 57.9253 72.0505 55.662 71.427C53.5603 70.9651 51.5049 71.2076 49.4956 72.1544C47.5094 73.1013 45.8812 74.5332 44.6109 76.4501Z" fill="white"/>
</svg>
